<svg width="21" height="22" viewBox="0 0 21 22" fill="none" xmlns="http://www.w3.org/2000/svg">
<path d="M10.5 0C4.69 0 0 4.60625 0 10.3125C0 12.65 0.77 14.85 2.24 16.6375L0.77 21.0375C0.7 21.3125 0.77 21.5875 0.98 21.7938C1.05 21.9312 1.26 22 1.4 22C1.47 22 1.61 22 1.68 21.9312L6.51 19.8C7.77 20.35 9.1 20.625 10.5 20.625C16.31 20.625 21 16.0187 21 10.3125C21 4.60625 16.31 0 10.5 0ZM16.59 14.0938C16.31 14.9187 15.26 15.6062 14.35 15.7437C14.14 15.8125 13.93 15.8125 13.65 15.8125C13.09 15.8125 12.25 15.675 10.78 15.0562C9.1 14.3687 7.42 12.925 6.09 11.0688V11C5.67 10.3813 4.9 9.2125 4.9 7.975C4.9 6.4625 5.67 5.70625 5.95 5.3625C6.3 5.01875 6.79 4.8125 7.35 4.8125C7.49 4.8125 7.56 4.8125 7.7 4.8125C8.19 4.8125 8.54 4.95 8.89 5.6375L9.17 6.1875C9.38 6.7375 9.66 7.35625 9.73 7.425C9.94 7.8375 9.94 8.18125 9.73 8.525C9.66 8.73125 9.52 8.86875 9.38 9.00625C9.31 9.14375 9.24 9.2125 9.17 9.2125C9.1 9.28125 9.1 9.28125 9.03 9.35C9.24 9.69375 9.66 10.3125 10.22 10.7937C11.06 11.55 11.69 11.7562 12.04 11.8937C12.18 11.7562 12.32 11.4812 12.53 11.275L12.6 11.1375C12.95 10.6563 13.51 10.5188 14.07 10.725C14.35 10.8625 15.89 11.55 15.89 11.55L16.03 11.6187C16.24 11.7562 16.52 11.825 16.66 12.1C16.94 12.7188 16.73 13.6125 16.59 14.0938Z" fill="black"/>
</svg>
