<svg width="200" height="69" viewBox="0 0 200 69" fill="none" xmlns="http://www.w3.org/2000/svg">
<path d="M95.172 19.1887L90.6996 33.1414C90.037 35.2467 89.2088 37.0218 85.109 37.0218C81.0093 37.0218 80.181 35.2467 79.5185 33.1414L75.046 19.1887C74.8804 18.6521 74.6733 18.1567 74.4663 18.1567C74.0935 18.1567 74.135 18.8172 74.135 19.1061L74.4248 36.6916H65.0244V12.5426C65.0244 7.46509 70.6564 7.46509 72.1472 7.46509C74.5905 7.46509 78.0691 7.75405 79.5599 12.2536L84.2394 26.2889C84.3222 26.5779 84.7777 27.6099 85.109 27.6099C85.4403 27.6099 85.8958 26.5779 85.9787 26.2889L90.6582 12.2536C92.149 7.75405 95.6276 7.46509 98.1123 7.46509C104.697 7.46509 105.235 10.7675 105.235 12.5426V36.6916H95.7932L96.1245 19.1061C96.1245 18.3218 95.9174 18.1567 95.7518 18.1567C95.5862 18.1567 95.4205 18.4044 95.172 19.1887Z" fill="#FED449"/>
<path d="M106.489 36.6916L117.215 10.9739C118.126 8.82734 119.368 7.46509 123.841 7.46509C126.615 7.46509 129.1 7.75405 130.467 10.9739L141.192 36.6916H131.336L129.059 30.7472H118.623L116.345 36.6916H106.489ZM123.468 16.8357L120.859 24.1423H126.822L124.214 16.8357C124.131 16.6293 123.965 16.2165 123.841 16.2165C123.717 16.2165 123.551 16.6293 123.468 16.8357Z" fill="#FED449"/>
<path d="M143.257 36.6916V7.79533H152.616V36.6916H143.257ZM175.268 36.6916H164.004L155.225 25.5046C154.521 24.5964 153.527 23.1516 153.527 21.9132C153.527 20.8399 154.231 19.5602 154.852 18.6933L162.637 7.79533H173.736L163.673 19.7253C162.596 21.005 162.472 21.6242 162.472 21.8719C162.472 22.8214 163.383 23.8121 164.004 24.4726L175.268 36.6916Z" fill="#FED449"/>
<path d="M199.015 36.6916H186.177C181.663 36.6916 178.64 36.0723 176.28 33.1414C174.541 30.9949 173.63 28.1465 173.63 22.615C173.63 17.7852 174.085 14.1525 176.156 11.5518C178.806 8.16685 183.03 7.79533 186.301 7.79533H198.559V14.9781H190.815C187.751 14.9781 185.473 14.9368 184.189 17.2485C183.361 18.6933 183.237 21.0463 183.237 22.4498C183.237 25.6697 183.693 26.743 183.941 27.2384C185.183 29.5088 187.875 29.5088 190.981 29.5088H199.015V36.6916Z" fill="#FED449"/>
<path d="M65.0244 57.5619V44.4769H69.4757V57.5619H65.0244ZM80.2493 57.5619H74.892L70.7165 52.4961C70.3817 52.0849 69.909 51.4306 69.909 50.8699C69.909 50.3838 70.2438 49.8044 70.5392 49.4118L74.242 44.4769H79.5205L74.7344 49.8791C74.2224 50.4586 74.1633 50.739 74.1633 50.8512C74.1633 51.2811 74.5966 51.7297 74.892 52.0288L80.2493 57.5619Z" fill="#393939"/>
<path d="M87.0529 44.3274C89.1407 44.3274 91.6027 44.3834 93.0798 45.6732C94.5767 46.9817 94.6358 49.2623 94.6358 51.0194C94.6358 52.7391 94.5767 55.0384 93.0798 56.3656C91.6224 57.6554 89.1013 57.7114 87.0529 57.7114C85.0046 57.7114 82.4835 57.6554 81.026 56.3656C79.5291 55.0384 79.47 52.7391 79.47 51.0194C79.47 49.2623 79.5291 46.9817 81.026 45.6732C82.5032 44.3834 84.9652 44.3274 87.0529 44.3274ZM84.0395 51.0194C84.0395 52.0475 84.0986 52.8513 84.5516 53.5056C85.1424 54.3654 85.9303 54.4589 87.0529 54.4589C88.215 54.4589 88.9437 54.3654 89.5543 53.5056C90.0664 52.7952 90.0664 52.0662 90.0664 51.0194C90.0664 49.8791 90.0861 49.2623 89.5543 48.5333C88.9437 47.6734 88.215 47.5799 87.0529 47.5799C85.9106 47.5799 85.1424 47.6734 84.5516 48.5333C84.0592 49.2249 84.0395 49.9352 84.0395 51.0194Z" fill="#393939"/>
<path d="M110.118 44.4769V57.5619H105.667V52.3653H100.664V57.5619H96.213V44.4769H100.664V49.1127H105.667V44.4769H110.118Z" fill="#393939"/>
<path d="M120.275 57.5619H115.823V47.7295H110.899V44.4769H125.199V47.7295H120.275V57.5619Z" fill="#393939"/>
<path d="M138.219 57.5619H128.292C127.721 57.5619 127.15 57.5245 126.618 57.1133C125.988 56.6086 125.988 56.0852 125.988 55.4683V46.4957C125.988 45.991 126.066 45.4489 126.578 45.0003C127.09 44.5517 127.76 44.4769 128.253 44.4769H138.16V47.6547H131.345C131.089 47.6547 130.813 47.7108 130.655 47.8416C130.439 48.0099 130.439 48.3089 130.439 48.4772V49.4679H137.963V52.3092H130.439V53.7299C130.439 53.9916 130.537 54.1411 130.636 54.2159C130.852 54.4028 131.207 54.3841 131.483 54.3841H138.219V57.5619Z" fill="#393939"/>
<path d="M154.614 57.5619H150.083L150.28 49.8791C150.28 49.6361 150.28 49.3931 150.083 49.3931C149.965 49.3931 149.847 49.5987 149.571 50.0287L145.652 56.3843C145.278 57.0011 144.588 57.7114 142.678 57.7114C139.96 57.7114 139.605 56.1412 139.605 54.571V44.4769H144.135L143.938 51.9727C143.938 52.2905 143.919 52.627 144.175 52.627C144.293 52.627 144.391 52.4588 144.569 52.1597L148.37 45.8602C149.237 44.4021 150.536 44.3274 151.344 44.3274C154.495 44.3274 154.614 46.4957 154.614 47.5612V57.5619ZM141.929 40.9626H144.707C144.844 41.2617 145.1 41.6356 145.416 41.8786C145.829 42.1777 146.499 42.3459 147.05 42.3459C147.602 42.3459 148.311 42.1777 148.705 41.8786C149 41.6543 149.256 41.243 149.394 40.9626H152.171C151.876 41.7851 151.206 42.8693 150.418 43.4301C149.552 44.047 148.252 44.3274 147.05 44.3274C145.849 44.3274 144.549 44.047 143.682 43.4301C142.895 42.8693 142.225 41.7851 141.929 40.9626Z" fill="#393939"/>
<path d="M170.494 44.4769V57.5619H166.043V52.3653H161.04V57.5619H156.589V44.4769H161.04V49.1127H166.043V44.4769H170.494Z" fill="#393939"/>
<path d="M184.688 57.5619H174.762C174.191 57.5619 173.619 57.5245 173.088 57.1133C172.457 56.6086 172.457 56.0852 172.457 55.4683V46.4957C172.457 45.991 172.536 45.4489 173.048 45.0003C173.56 44.5517 174.23 44.4769 174.722 44.4769H184.629V47.6547H177.815C177.559 47.6547 177.283 47.7108 177.125 47.8416C176.909 48.0099 176.909 48.3089 176.909 48.4772V49.4679H184.432V52.3092H176.909V53.7299C176.909 53.9916 177.007 54.1411 177.105 54.2159C177.322 54.4028 177.677 54.3841 177.952 54.3841H184.688V57.5619Z" fill="#393939"/>
<path d="M190.526 57.5619H186.075V46.9444C186.075 46.4023 186.154 45.6546 186.627 45.1498C186.922 44.8321 187.513 44.4769 188.458 44.4769H196.081C197.184 44.4769 198.208 44.6078 198.976 45.3929C199.626 46.0471 200 47.0752 200 48.9632C200 49.8791 199.921 52.1223 198.759 53.0756C198.109 53.599 197.085 53.7859 196.337 53.7859H190.526V57.5619ZM190.526 50.5334H193.717C194.269 50.5334 194.82 50.5708 195.194 50.1969C195.411 49.9726 195.549 49.5987 195.549 49.0567C195.549 48.7202 195.509 48.3089 195.155 48.0285C194.781 47.7295 194.269 47.7295 193.756 47.7295H191.294C190.585 47.7295 190.526 48.2155 190.526 48.4959V50.5334Z" fill="#393939"/>
<path d="M52.2168 53.7382L31.0425 65.75C27.9822 67.4861 24.2346 67.4861 21.1742 65.75L-4.82963e-05 53.7382L-4.75769e-05 45.51L7.4595 48.8013L7.4595 31.1106L26.1084 41.8073L44.7572 31.522L44.7572 48.8013L52.2168 45.51L52.2168 53.7382Z" fill="#FED449"/>
<path d="M52.2168 15.5496L26.1084 30.1255L-4.83168e-05 15.5496L21.1315 3.42445C24.2138 1.6559 28.003 1.6559 31.0852 3.42445L52.2168 15.5496Z" fill="#393939"/>
</svg>
