<svg width="155" height="101" viewBox="0 0 155 101" fill="none" xmlns="http://www.w3.org/2000/svg">
<path d="M133.994 78L109.994 101L0.000396729 101L0.000392532 53L24.0004 30L24.0004 78L133.994 78Z" fill="#FED449"/>
<path d="M42.9941 11.338L54.8297 -2.0694e-06L154.995 -1.62607e-05L154.995 55.662L143.159 67L143.159 11.338L42.9941 11.338Z" fill="#FED449"/>
<path d="M61.155 52.0003L61.111 33.5203L52.047 48.7443H48.835L39.815 33.9163V52.0003H33.127V21.2003H39.023L50.551 40.3403L61.903 21.2003H67.755L67.843 52.0003H61.155Z" fill="#393939"/>
<path d="M94.2925 45.4002H79.9925L77.2645 52.0002H69.9605L83.6885 21.2002H90.7285L104.5 52.0002H97.0205L94.2925 45.4002ZM92.0485 39.9882L87.1645 28.1962L82.2805 39.9882H92.0485Z" fill="#393939"/>
<path d="M127.424 52.0002L119.988 41.3082L112.684 52.0002H104.5L115.896 36.3362L105.072 21.2002H113.168L120.252 31.1882L127.204 21.2002H134.904L124.168 36.0722L135.652 52.0002H127.424Z" fill="#393939"/>
<path d="M39.3071 69C38.12 69 37.0439 68.7459 36.0787 68.2376C35.1245 67.7182 34.3701 67.0055 33.8154 66.0994C33.2718 65.1823 33 64.1492 33 63C33 61.8508 33.2718 60.8232 33.8154 59.9171C34.3701 59 35.1245 58.2873 36.0787 57.779C37.0439 57.2597 38.1255 57 39.3237 57C40.3333 57 41.243 57.1768 42.0529 57.5304C42.8739 57.884 43.5617 58.3923 44.1164 59.0552L42.3857 60.6464C41.598 59.7403 40.6218 59.2873 39.4569 59.2873C38.7357 59.2873 38.0923 59.4475 37.5265 59.768C36.9606 60.0773 36.5169 60.5138 36.1951 61.0773C35.8845 61.6409 35.7292 62.2818 35.7292 63C35.7292 63.7182 35.8845 64.3591 36.1951 64.9227C36.5169 65.4862 36.9606 65.9282 37.5265 66.2486C38.0923 66.558 38.7357 66.7127 39.4569 66.7127C40.6218 66.7127 41.598 66.2541 42.3857 65.337L44.1164 66.9282C43.5617 67.6022 42.8739 68.116 42.0529 68.4696C41.2319 68.8232 40.3167 69 39.3071 69Z" fill="#393939"/>
<path d="M51.3346 69C50.1254 69 49.0326 68.7403 48.0563 68.221C47.0911 67.7017 46.3311 66.9889 45.7764 66.0829C45.2328 65.1657 44.961 64.1381 44.961 63C44.961 61.8619 45.2328 60.8398 45.7764 59.9337C46.3311 59.0166 47.0911 58.2983 48.0563 57.779C49.0326 57.2597 50.1254 57 51.3346 57C52.5439 57 53.6312 57.2597 54.5964 57.779C55.5616 58.2983 56.3215 59.0166 56.8762 59.9337C57.4309 60.8398 57.7083 61.8619 57.7083 63C57.7083 64.1381 57.4309 65.1657 56.8762 66.0829C56.3215 66.9889 55.5616 67.7017 54.5964 68.221C53.6312 68.7403 52.5439 69 51.3346 69ZM51.3346 66.7127C52.0225 66.7127 52.6438 66.558 53.1985 66.2486C53.7532 65.9282 54.1859 65.4862 54.4965 64.9227C54.8182 64.3591 54.9791 63.7182 54.9791 63C54.9791 62.2818 54.8182 61.6409 54.4965 61.0773C54.1859 60.5138 53.7532 60.0773 53.1985 59.768C52.6438 59.4475 52.0225 59.2873 51.3346 59.2873C50.6468 59.2873 50.0255 59.4475 49.4708 59.768C48.9161 60.0773 48.4779 60.5138 48.1561 61.0773C47.8455 61.6409 47.6902 62.2818 47.6902 63C47.6902 63.7182 47.8455 64.3591 48.1561 64.9227C48.4779 65.4862 48.9161 65.9282 49.4708 66.2486C50.0255 66.558 50.6468 66.7127 51.3346 66.7127Z" fill="#393939"/>
<path d="M70.4181 57.1989V68.8011H68.2048L62.397 61.7569V68.8011H59.7344V57.1989H61.9643L67.7555 64.2431V57.1989H70.4181Z" fill="#393939"/>
<path d="M75.5872 59.3867H71.8596V57.1989H82.0108V59.3867H78.2831V68.8011H75.5872V59.3867Z" fill="#393939"/>
<path d="M90.548 66.3149H85.1395L84.1078 68.8011H81.3453L86.5374 57.1989H89.2L94.4088 68.8011H91.5797L90.548 66.3149ZM89.6993 64.2762L87.8521 59.8343L86.0049 64.2762H89.6993Z" fill="#393939"/>
<path d="M95.6174 57.1989H98.3133V68.8011H95.6174V57.1989Z" fill="#393939"/>
<path d="M111.762 57.1989V68.8011H109.548L103.74 61.7569V68.8011H101.078V57.1989H103.308L109.099 64.2431V57.1989H111.762Z" fill="#393939"/>
<path d="M123.537 66.6464V68.8011H114.518V57.1989H123.321V59.3536H117.197V61.8729H122.605V63.9613H117.197V66.6464H123.537Z" fill="#393939"/>
<path d="M133.104 68.8011L130.858 65.5691H128.378V68.8011H125.682V57.1989H130.725C131.756 57.1989 132.65 57.3702 133.404 57.7127C134.169 58.0552 134.757 58.5414 135.168 59.1713C135.578 59.8011 135.784 60.547 135.784 61.4088C135.784 62.2707 135.573 63.0166 135.151 63.6464C134.741 64.2652 134.153 64.7403 133.387 65.0718L136 68.8011H133.104ZM133.054 61.4088C133.054 60.7569 132.844 60.2597 132.422 59.9171C132.001 59.5635 131.385 59.3867 130.575 59.3867H128.378V63.4309H130.575C131.385 63.4309 132.001 63.2541 132.422 62.9006C132.844 62.547 133.054 62.0497 133.054 61.4088Z" fill="#393939"/>
</svg>
