<svg width="21" height="21" viewBox="0 0 21 21" fill="none" xmlns="http://www.w3.org/2000/svg">
<path d="M10.5 0C4.70102 2.15324e-05 2.15324e-05 4.70102 0 10.5C2.21251e-05 16.299 4.70102 21 10.5 21C16.299 21 21 16.299 21 10.5C21 4.70102 16.299 2.21251e-05 10.5 0ZM15.9391 4.71601C16.3656 4.70046 16.6886 5.08661 16.5155 5.78052L14.4351 15.5852C14.2899 16.282 13.8686 16.4487 13.2853 16.127L10.1157 13.785C9.37124 14.5088 8.70436 15.157 8.59207 15.2669C8.41548 15.4394 8.27482 15.5841 7.95776 15.5841C7.54691 15.5841 7.61683 15.4286 7.47509 15.0374L6.30911 11.463L3.26181 10.5116C2.58486 10.3042 2.57993 9.83913 3.41383 9.50456L15.6319 4.79202C15.7366 4.74453 15.8406 4.7196 15.9391 4.71601ZM14.001 6.80143C13.9092 6.80014 13.7843 6.83302 13.6557 6.911L6.78754 11.2443L7.94464 14.7928L8.17383 12.3504L14.055 7.04411C14.2164 6.90091 14.1542 6.80355 14.001 6.80143Z" fill="black"/>
</svg>
